<svg width="545" height="553" viewBox="0 0 545 553" fill="none" xmlns="http://www.w3.org/2000/svg">
<g opacity="0.1">
<path d="M531.768 149.411C530.141 150.457 523.813 153.171 511.192 158.521C497.489 164.308 494.92 164.958 493.656 163.694C491.737 161.884 494.053 157.292 502.296 139.467C512.204 118.097 512.928 115.961 516.835 112.419C525.078 104.932 534.372 103.017 540.411 101.822C546.666 100.522 552.705 99.2919 555.527 102.475C558.78 106.091 555.78 113.396 552.959 120.409C549.884 127.967 544.786 140.514 531.768 149.411ZM429.76 178.268L428.565 181.63L414.535 221.334L398.59 266.499L390.995 288.013L386.149 290.69L384.919 291.34L379.568 294.161L359.319 305.082H271.812C271.812 305.082 273.003 308.877 279.84 315.025C285.515 320.088 292.17 325.257 300.125 330.212C293.47 328.619 283.817 325.548 273.583 319.291C264.036 313.325 256.984 306.273 251.633 300.633C246.971 295.75 243.605 291.773 240.822 290.398C240.028 290.001 239.412 289.784 238.724 289.784C238.327 289.784 237.93 289.784 237.639 290.002C235.362 290.905 233.155 294.776 234.167 309.168C232.178 302.405 229.395 289.495 232.252 273.512C232.975 269.717 233.843 266.246 234.964 262.989C237.821 254.022 241.798 247.297 244.581 243.102C244.076 246.9 243.678 252.43 244.472 259.012C244.581 259.482 244.69 260.205 244.873 261.073C245.27 263.389 246.064 266.751 247.656 271.017V271.126C249.065 274.706 250.948 278.863 253.84 283.638L258.288 270.729L289.384 183.113L254.599 175.155H338.564L298.027 289.784H343.915L384.451 175.155H430.846L429.76 178.268ZM596.71 251.296C599.029 244.482 602.004 235.749 606.497 235.496C613.946 235.083 621.356 258.22 626.66 279.007C626.301 268.452 623.695 228.752 592.701 201.184C583.405 192.916 573.749 187.686 565.579 184.324C572.868 189.998 582.156 199.135 586.334 212.502C589.88 223.842 588.464 233.75 585.739 243.39C584.416 248.066 577.842 248.114 576.423 243.463C572.99 232.197 568.782 222.906 564.385 215.221C561.276 209.761 545.98 183.907 554.476 173.854C560.949 166.153 582.319 165.935 589.3 157.003C595.231 149.411 591.251 145.503 597.761 130.824C605.498 113.322 614.648 111.007 614.648 102.69C614.682 97.9184 612.009 93.2905 607.813 89.0603L558.201 72.4233C549.81 73.7623 540.843 76.6927 526.922 79.2962C491.449 85.9856 489.678 77.8483 453.769 82.5851C451.383 82.8765 448.815 83.2378 446.105 83.5618C436.882 85.0797 426.506 87.36 415.477 90.7578C400.143 95.4937 387.055 101.281 376.458 106.815C375.664 107.247 374.905 107.609 374.146 108.115C350.422 122.542 333.536 140.985 321.786 157.906C330.788 150.025 345.11 138.779 364.852 129.306C398.735 112.996 440.751 105.476 444.802 114.225C445.705 116.109 444.007 117.046 442.416 123.448C439.124 136.284 443.066 143.768 442.705 152.846L442.698 152.981C442.435 159.313 437.225 164.308 430.891 164.308H376.785H353.933H158.522L252.213 185.716L275.101 190.959L255.034 247.476C254.852 247.435 255.146 247.505 254.964 247.46L261.577 197.902L235.58 237.101C230.769 244.296 227.225 251.671 224.695 259.555C223.464 263.136 222.452 267.005 221.62 271.453C219.161 285.086 219.922 299.151 223.791 312.204L252.031 408.281L245.088 309.456C250.983 315.602 258.323 322.509 267.834 328.476C277.054 334.119 287.033 338.24 297.63 340.735L362.538 356.282L305.873 320.991C303.269 319.365 300.739 317.664 298.28 315.929H362.066L364.491 314.628L372.971 310.052C376.154 308.332 379.923 310.932 379.456 314.523C375.597 344.094 378.399 389.386 378.63 392.624C378.918 338.167 395.443 312.239 410.92 298.571C433.088 279.045 476.407 264.148 473.948 248.527C473.512 245.596 471.452 242.451 470.729 234.894C470.55 232.905 470.005 225.927 472.247 216.921C474.345 208.461 481.937 186.04 491.305 185.752C496.945 185.607 503.779 193.489 524.428 255.975C535.06 288.086 541.241 304.176 543.63 318.026C549.957 355.488 545.471 384.887 544.424 391.324C537.952 431.316 521.101 461.112 508.95 478.758C518.785 470.261 529.452 459.559 539.688 446.179C564.638 413.635 576.138 379.1 581.96 346.16V346.013C582.706 339.88 583.279 333.987 583.702 328.315C584.051 323.567 590.098 321.84 592.899 325.693C600.262 335.803 610.625 346.855 625.01 358.835C616.223 349.987 599.5 330.538 593.645 301.53C592.448 295.603 588.755 274.665 596.71 251.296Z" fill="white"/>
</g>
</svg>
