<svg width="111" height="36" viewBox="0 0 111 36" fill="none" xmlns="http://www.w3.org/2000/svg">
<path fill-rule="evenodd" clip-rule="evenodd" d="M54.3766 30.9282H43.9808C43.0825 30.9282 42.6454 29.8201 43.3096 29.2155C44.4814 28.1456 45.8349 27.2935 47.3061 26.6994C48.8393 26.0845 50.4732 25.7595 52.1249 25.7407H64.8717L63.438 27.1744C61.0348 29.5777 57.7753 30.928 54.3766 30.9282ZM78.2613 25.8028H66.9146C66.0353 25.8028 65.5948 24.7422 66.2132 24.1186C67.3784 22.9364 68.7792 22.0124 70.3246 21.4065C71.8775 20.8019 73.2863 20.6403 74.2977 20.6153H87.9593L85.9615 22.614C84.9503 23.6251 83.7498 24.4271 82.4286 24.9743C81.1074 25.5214 79.6913 25.8029 78.2613 25.8028ZM34.0789 20.6119H52.0342L50.5278 22.1182C48.1665 24.4795 44.9639 25.8061 41.6245 25.8063H21.5921C17.5982 25.8063 15.8776 20.7535 19.0328 18.3048C23.5031 14.8325 28.4208 11.9781 33.6532 9.81867C41.2533 6.69032 49.3899 5.07183 57.6087 5.0535C50.8477 6.60516 44.6604 10.0296 39.7554 14.9346L34.0789 20.6119ZM93.5511 5.0535C90.0746 5.86109 86.5998 6.67039 83.1233 7.47884L74.0264 16.5774C71.4423 19.1604 67.9382 20.6116 64.2845 20.6119H52.0342L67.5933 5.0535H93.5511Z" fill="white"/>
</svg>
