<svg width="192" height="128" viewBox="0 0 192 128" fill="none" xmlns="http://www.w3.org/2000/svg">
<path fill-rule="evenodd" clip-rule="evenodd" d="M68.9019 10.7434L78.7472 39.9962C79.0691 39.4904 79.5269 38.1102 79.9323 36.8881L79.9324 36.8881L79.9324 36.8879L79.9326 36.8873C80.1587 36.2057 80.3685 35.5733 80.5293 35.1694C82.3453 30.6083 84.5881 26.4462 87.3453 22.5892C88.2607 21.3087 89.3798 19.8752 90.2702 18.9061C93.3729 15.5291 96.4267 12.3002 100.471 9.7207C106.067 6.15169 111.105 3.64246 118.584 1.8385C125.949 0.0621173 134.259 -0.402007 142.136 0.338025C166.106 2.58987 186.869 17.9763 190.53 42.7848C191.299 47.9926 189.998 49.4175 187.356 51.921C190.559 53.5757 191.841 55.6412 191.837 60.3773C191.836 62.0792 191.848 63.7224 191.859 65.3211V65.3212C191.936 75.9695 191.999 84.639 188.031 95.4774C177.751 123.56 145.708 132.323 118.338 125.766C111.385 124.1 105.473 121.256 100.325 117.781L100.269 117.743C99.3696 117.136 99.2039 117.024 97.745 117.035C97.1598 117.04 96.3695 117.047 95.4337 117.056H95.4335H95.433C89.2596 117.113 76.7595 117.228 75.0864 116.975L68.4631 93.6232L33.803 93.6277C33.3769 94.9006 32.279 98.6811 31.0697 102.845L31.0696 102.845L31.0695 102.846C29.2279 109.187 27.1281 116.418 26.7485 117.039L0 117.025L35.7471 10.7125L68.9019 10.7434ZM138.589 59.027L184.058 59.0254C184.332 61.4813 184.25 64.9964 184.175 68.1705V68.1708V68.1717V68.1726C184.143 69.5411 184.113 70.8462 184.113 71.9756C184.113 76.0704 183.866 79.9644 183.175 83.8252C181.209 94.8161 176.814 101.881 169.622 108.672C157.099 120.497 134.825 121.965 118.745 117.758C115.537 116.919 112.327 115.645 109.511 114.193C107.66 113.238 102.547 110.301 101.928 108.978C101.55 108.168 101.176 106.945 100.827 105.807C100.649 105.226 100.478 104.667 100.317 104.196L85.7726 60.9447C85.3818 59.7603 85.0548 58.8583 84.7892 58.1258C83.7667 55.3053 83.6553 54.998 84.3235 50.7558C85.4218 43.7807 87.7069 37.0025 90.7978 31.6432C96.5642 21.6452 105.774 12.9617 119.887 9.545C136.365 5.55609 156.427 8.37449 168.195 18.515C171.125 21.0401 173.63 23.2579 175.975 26.7351C178.91 31.086 182.691 38.5895 182.913 45.3432H156.287C156.117 44.9171 155.961 44.5248 155.817 44.16C154.646 41.1988 154.194 40.0568 152.048 37.4678C145.804 29.9344 133.014 28.4426 124.901 32.5468C119.814 35.1196 115.971 39.6935 113.733 45.7756C107.623 62.3745 110.342 91.7682 130.107 96.5898C139.678 98.9244 150.691 96.1419 155.719 87.3647C156.881 85.3351 158.361 80.4814 157.91 77.6521L138.554 77.5984L138.589 59.027ZM147.393 85.3913C146.662 85.4095 145.928 85.4376 145.198 85.4655C140.087 85.6613 135.165 85.8497 132.51 82.5883C130.832 80.5266 130.68 78.796 130.682 75.5751C130.683 73.5754 130.683 71.5756 130.682 69.5759L130.682 66.5764C130.682 65.6335 130.659 64.7149 130.637 63.825C130.513 58.8923 130.411 54.8407 134.382 52.4262C136.443 51.1726 138.261 51.1968 140.677 51.229C141.077 51.2343 141.493 51.2398 141.93 51.2398C142.81 51.2398 143.719 51.2516 144.637 51.2635H144.638C146.75 51.2909 148.916 51.3189 150.913 51.2062C150.735 50.943 150.557 50.7136 150.378 50.4845C150.017 50.0199 149.656 49.5559 149.297 48.8111C149.017 48.2322 148.842 47.6898 148.662 47.1358L148.662 47.1355C148.532 46.7322 148.399 46.3227 148.223 45.8884C145.69 39.6408 138.698 37.3429 132.005 38.4522C123.433 39.8725 119.947 48.5401 119.033 57.8264C117.763 70.7346 120.532 88.7732 135.377 89.5064C137.796 89.6258 140.273 89.3794 142.418 88.6639C144.348 88.0191 146.579 86.7266 147.393 85.3913ZM63.3473 74.1524L38.958 74.1139L50.5857 34.645L51.9278 34.6462C52.4428 35.7204 55.1757 45.4659 56.7349 51.026C57.1704 52.5789 57.5143 53.8053 57.6928 54.4252L63.3473 74.1524Z" fill="white"/>
</svg>
