<svg width="72" height="52" viewBox="0 0 72 52" fill="none" xmlns="http://www.w3.org/2000/svg">
<path d="M42.8578 11.5215H26.4453V40.479H42.8578V11.5215Z" fill="#FF5F00"/>
<path d="M27.4877 25.9998C27.4807 23.1966 28.1243 20.4299 29.3678 17.9175C30.6113 15.4052 32.4208 13.2156 34.654 11.5211C32.5805 9.92147 30.1977 8.76948 27.6562 8.1379C25.1147 7.50633 22.4698 7.40891 19.8887 7.85182C17.3077 8.29472 14.8466 9.26831 12.661 10.711C10.4755 12.1538 8.61306 14.0342 7.19146 16.2336C5.33324 19.152 4.34619 22.54 4.34619 25.9998C4.34619 29.4596 5.33324 32.8476 7.19146 35.7661C9.06783 38.7045 11.7308 41.0578 14.8777 42.5586C18.0458 44.0674 21.5691 44.6716 25.0589 44.3046C28.5486 43.9375 31.8691 42.6135 34.654 40.4786C32.4421 38.7655 30.6489 36.5717 29.4102 34.0633C28.1715 31.5548 27.5196 28.7974 27.504 25.9998H27.4877Z" fill="#EB001B"/>
<path d="M64.9921 25.9998C64.9921 29.4611 64.0008 32.8248 62.1321 35.7661C60.2513 38.7068 57.5825 41.0604 54.4296 42.5586C51.2615 44.0674 47.7382 44.6716 44.2484 44.3046C40.7587 43.9375 37.4381 42.6135 34.6533 40.4786C36.8655 38.7647 38.6598 36.5711 39.9011 34.0631C41.1425 31.5551 41.7984 28.7981 41.8196 25.9998C41.8259 23.1983 41.1838 20.4334 39.9433 17.9215C38.7029 15.4097 36.8979 13.219 34.6696 11.5211C36.7431 9.92147 39.1259 8.76948 41.6674 8.1379C44.2088 7.50633 46.8537 7.40891 49.4348 7.85182C52.0158 8.29472 54.4769 9.26831 56.6625 10.711C58.848 12.1538 60.7105 14.0342 62.1321 16.2336C63.9925 19.1458 64.9846 22.5278 64.9921 25.9836V25.9998Z" fill="#F79E1B"/>
</svg>
