<svg width="219" height="75" viewBox="0 0 219 75" fill="none" xmlns="http://www.w3.org/2000/svg">
<path fill-rule="evenodd" clip-rule="evenodd" d="M106.272 74.4468H76.3955C73.8139 74.4468 72.5577 71.2621 74.4665 69.5245C77.8341 66.4499 81.7238 64.0012 85.9521 62.2937C90.3581 60.5266 95.0537 59.5924 99.8005 59.5384H136.433L132.313 63.6589C125.406 70.5656 116.039 74.4461 106.272 74.4468ZM174.913 59.7171H142.304C139.777 59.7171 138.511 56.669 140.289 54.8768C143.637 51.4794 147.663 48.8239 152.104 47.0825C156.567 45.3449 160.616 44.8807 163.522 44.8087H202.784L197.043 50.5527C194.137 53.4585 190.686 55.7634 186.89 57.3359C183.093 58.9083 179.023 59.7174 174.913 59.7171ZM47.9387 44.7989H99.5399L95.2108 49.1278C88.4246 55.9139 79.2209 59.7265 69.6238 59.7271H12.053C0.57512 59.7271 -4.36955 45.2059 4.69811 38.1687C17.5452 28.1896 31.678 19.9865 46.7151 13.7806C68.557 4.79011 91.9405 0.138771 115.56 0.0860977C96.1301 4.54535 78.3485 14.3867 64.2521 28.483L47.9387 44.7989ZM218.854 0.0860977C208.863 2.407 198.877 4.73283 188.886 7.05621L162.743 33.2042C155.316 40.6276 145.246 44.7981 134.746 44.7989H99.5399L144.255 0.0860977H218.854Z" fill="white"/>
</svg>
