<svg width="25" height="24" viewBox="0 0 25 24" fill="none" xmlns="http://www.w3.org/2000/svg">
<path d="M20.75 21H8.75C8.55109 21 8.36032 20.921 8.21967 20.7803C8.07902 20.6397 8 20.4489 8 20.25V16.5H4.25C4.05109 16.5 3.86032 16.421 3.71967 16.2803C3.57902 16.1397 3.5 15.9489 3.5 15.75V3.75C3.5 3.55109 3.57902 3.36032 3.71967 3.21967C3.86032 3.07902 4.05109 3 4.25 3H16.25C16.4489 3 16.6397 3.07902 16.7803 3.21967C16.921 3.36032 17 3.55109 17 3.75V7.5H20.75C20.9489 7.5 21.1397 7.57902 21.2803 7.71967C21.421 7.86032 21.5 8.05109 21.5 8.25V20.25C21.5 20.4489 21.421 20.6397 21.2803 20.7803C21.1397 20.921 20.9489 21 20.75 21ZM15.5 4.5H5V15H15.5V4.5ZM20 9H17V15.75C17 15.9489 16.921 16.1397 16.7803 16.2803C16.6397 16.421 16.4489 16.5 16.25 16.5H9.5V19.5H20V9Z" fill="black"/>
</svg>
