<svg width="25" height="25" viewBox="0 0 25 25" fill="none" xmlns="http://www.w3.org/2000/svg">
<path d="M22.5 7.74002C22.5008 7.60841 22.4756 7.47795 22.4258 7.35611C22.376 7.23427 22.3027 7.12346 22.21 7.03002L17.97 2.79002C17.8766 2.69734 17.7658 2.62401 17.6439 2.57425C17.5221 2.52448 17.3916 2.49926 17.26 2.50002C17.1284 2.49926 16.9979 2.52448 16.8761 2.57425C16.7543 2.62401 16.6435 2.69734 16.55 2.79002L13.72 5.62002L2.79002 16.55C2.69734 16.6435 2.62401 16.7543 2.57425 16.8761C2.52448 16.9979 2.49926 17.1284 2.50002 17.26V21.5C2.50002 21.7652 2.60537 22.0196 2.79291 22.2071C2.98045 22.3947 3.2348 22.5 3.50002 22.5H7.74002C7.87994 22.5076 8.01991 22.4857 8.15084 22.4358C8.28176 22.3858 8.40073 22.3089 8.50002 22.21L19.37 11.28L22.21 8.50002C22.3013 8.4031 22.3757 8.29155 22.43 8.17002C22.4397 8.09031 22.4397 8.00973 22.43 7.93002C22.4347 7.88347 22.4347 7.83657 22.43 7.79002L22.5 7.74002ZM7.33002 20.5H4.50002V17.67L14.43 7.74002L17.26 10.57L7.33002 20.5ZM18.67 9.16002L15.84 6.33002L17.26 4.92002L20.08 7.74002L18.67 9.16002Z" fill="black"/>
</svg>
