<svg width="101" height="101" viewBox="0 0 101 101" fill="none" xmlns="http://www.w3.org/2000/svg">
<rect x="7.5" y="7.5" width="86" height="86" rx="43" fill="#EAECF5"/>
<rect x="7.5" y="7.5" width="86" height="86" rx="43" stroke="#F5F7FD" stroke-width="14.1667"/>
<path d="M51.5079 48.993C51.3395 48.8318 51.1409 48.7054 50.9236 48.6212C50.4924 48.444 50.0089 48.444 49.5777 48.6212C49.3604 48.7054 49.1618 48.8318 48.9934 48.993L45.4517 52.5347C45.1182 52.8682 44.9309 53.3204 44.9309 53.792C44.9309 54.2636 45.1182 54.7158 45.4517 55.0493C45.7851 55.3827 46.2374 55.5701 46.709 55.5701C47.1806 55.5701 47.6328 55.3827 47.9663 55.0493L48.4798 54.518V59.1045C48.4798 59.5741 48.6664 60.0246 48.9985 60.3567C49.3306 60.6888 49.781 60.8753 50.2507 60.8753C50.7203 60.8753 51.1707 60.6888 51.5028 60.3567C51.8349 60.0246 52.0215 59.5741 52.0215 59.1045V54.518L52.535 55.0493C52.6996 55.2153 52.8955 55.347 53.1113 55.4369C53.3271 55.5268 53.5585 55.5731 53.7923 55.5731C54.0261 55.5731 54.2575 55.5268 54.4733 55.4369C54.6891 55.347 54.885 55.2153 55.0496 55.0493C55.2156 54.8847 55.3473 54.6888 55.4372 54.473C55.5271 54.2572 55.5734 54.0258 55.5734 53.792C55.5734 53.5582 55.5271 53.3268 55.4372 53.111C55.3473 52.8952 55.2156 52.6993 55.0496 52.5347L51.5079 48.993ZM64.4173 44.8316C64.3989 44.6689 64.3633 44.5086 64.3111 44.3535V44.1941C64.2259 44.012 64.1124 43.8446 63.9746 43.6982V43.6982L53.3496 33.0732C53.2032 32.9355 53.0359 32.8219 52.8538 32.7368H52.6767C52.5045 32.6447 52.3195 32.579 52.1277 32.542H41.3965C39.9875 32.542 38.6363 33.1017 37.64 34.098C36.6437 35.0943 36.084 36.4455 36.084 37.8545V62.6462C36.084 64.0551 36.6437 65.4064 37.64 66.4027C38.6363 67.399 39.9875 67.9587 41.3965 67.9587H59.1048C60.5138 67.9587 61.865 67.399 62.8613 66.4027C63.8576 65.4064 64.4173 64.0551 64.4173 62.6462V44.9378C64.4173 44.9378 64.4173 44.9378 64.4173 44.8316ZM53.7923 38.5805L58.3788 43.167H55.5632C55.0935 43.167 54.6431 42.9804 54.311 42.6483C53.9789 42.3162 53.7923 41.8658 53.7923 41.3962V38.5805ZM60.8757 62.6462C60.8757 63.1158 60.6891 63.5662 60.357 63.8983C60.0249 64.2304 59.5745 64.417 59.1048 64.417H41.3965C40.9268 64.417 40.4764 64.2304 40.1443 63.8983C39.8122 63.5662 39.6257 63.1158 39.6257 62.6462V37.8545C39.6257 37.3848 39.8122 36.9344 40.1443 36.6023C40.4764 36.2702 40.9268 36.0837 41.3965 36.0837H50.2507V41.3962C50.2507 42.8051 50.8104 44.1564 51.8066 45.1527C52.8029 46.149 54.1542 46.7087 55.5632 46.7087H60.8757V62.6462Z" fill="#333333"/>
</svg>
