<svg width="103" height="73" viewBox="0 0 103 73" fill="none" xmlns="http://www.w3.org/2000/svg">
<path d="M69.9516 19.6059C69.7376 19.7436 68.9052 20.1006 67.245 20.8044C65.4423 21.5657 65.1045 21.6512 64.9381 21.4848C64.6857 21.2468 64.9903 20.6427 66.0747 18.2979C67.378 15.4867 67.4733 15.2058 67.9873 14.7399C69.0715 13.755 70.2941 13.503 71.0886 13.3459C71.9113 13.1749 72.7058 13.0131 73.0769 13.4319C73.5049 13.9075 73.1102 14.8684 72.7391 15.7909C72.3347 16.7851 71.664 18.4357 69.9516 19.6059ZM56.5329 23.402L56.3757 23.8443L54.5302 29.0672L52.4327 35.0084L51.4335 37.8384L50.7961 38.1905L50.6343 38.276L49.9303 38.6472L47.2667 40.0837H35.7556C35.7556 40.0837 35.9123 40.583 36.8117 41.3918C37.5582 42.0578 38.4336 42.7377 39.48 43.3895C38.6046 43.18 37.3349 42.7761 35.9886 41.9529C34.7327 41.1681 33.8051 40.2405 33.1011 39.4986C32.4878 38.8562 32.045 38.333 31.679 38.1522C31.5745 38.1 31.4936 38.0714 31.4031 38.0714C31.3508 38.0714 31.2986 38.0714 31.2602 38.1C30.9607 38.2189 30.6704 38.7282 30.8036 40.6213C30.542 39.7316 30.1758 38.0334 30.5516 35.9309C30.6468 35.4317 30.761 34.9751 30.9084 34.5466C31.2842 33.367 31.8074 32.4824 32.1735 31.9306C32.107 32.4302 32.0547 33.1577 32.1592 34.0235C32.1735 34.0853 32.1878 34.1805 32.2119 34.2946C32.2642 34.5993 32.3685 35.0416 32.578 35.6027V35.617C32.7633 36.088 33.011 36.6348 33.3914 37.2629L33.9766 35.5649L38.0671 24.0393L33.4913 22.9925H44.5365L39.2041 38.0714H45.2405L50.5728 22.9925H56.6757L56.5329 23.402ZM78.4944 33.0086C78.7995 32.1121 79.1908 30.9633 79.7818 30.93C80.7617 30.8757 81.7365 33.9193 82.4341 36.6538C82.387 35.2652 82.0441 30.0429 77.9671 26.4165C76.7442 25.3289 75.4739 24.6409 74.3993 24.1986C75.3581 24.9451 76.5798 26.147 77.1295 27.9054C77.5959 29.3971 77.4096 30.7004 77.0512 31.9685C76.8772 32.5836 76.0124 32.5899 75.8257 31.9781C75.3741 30.4961 74.8206 29.274 74.2422 28.263C73.8332 27.5447 71.8212 24.1438 72.9388 22.8214C73.7902 21.8083 76.6013 21.7796 77.5196 20.6047C78.2999 19.6059 77.7763 19.092 78.6327 17.1609C79.6505 14.8586 80.854 14.5541 80.854 13.46C80.8586 12.8324 80.5069 12.2236 79.955 11.6671L73.4287 9.47864C72.325 9.65477 71.1454 10.0402 69.3142 10.3827C64.6478 11.2627 64.4148 10.1923 59.6912 10.8154C59.3773 10.8537 59.0395 10.9012 58.6831 10.9439C57.4698 11.1435 56.1049 11.4435 54.654 11.8905C52.637 12.5134 50.9153 13.2747 49.5213 14.0027C49.4169 14.0595 49.317 14.1071 49.2172 14.1737C46.0964 16.0715 43.8751 18.4975 42.3295 20.7235C43.5136 19.6868 45.3976 18.2074 47.9946 16.9613C52.4517 14.8158 57.9788 13.8265 58.5116 14.9774C58.6304 15.2252 58.4071 15.3486 58.1978 16.1907C57.7648 17.8792 58.2833 18.8637 58.2357 20.0579L58.2349 20.0756C58.2003 20.9085 57.515 21.5657 56.6817 21.5657H49.5643H46.5582H20.8528L33.1774 24.3818L36.1882 25.0714L33.5486 32.5061C33.5246 32.5006 33.5633 32.5098 33.5393 32.5039L34.4092 25.9848L30.9894 31.1412C30.3566 32.0876 29.8903 33.0579 29.5575 34.095C29.3957 34.566 29.2626 35.0749 29.153 35.66C28.8296 37.4534 28.9297 39.3036 29.4387 41.0207L33.1534 53.6591L32.2402 40.6592C33.0156 41.4676 33.9812 42.3763 35.2323 43.1612C36.4452 43.9035 37.7578 44.4456 39.1519 44.7738L47.6901 46.819L40.2361 42.1766C39.8937 41.9626 39.5609 41.739 39.2374 41.5106H47.6281L47.9471 41.3395L49.0625 40.7375C49.4813 40.5114 49.9772 40.8534 49.9157 41.3257C49.408 45.2157 49.7767 51.1737 49.807 51.5996C49.8448 44.4359 52.0187 41.0253 54.0546 39.2273C56.9707 36.6588 62.6691 34.6991 62.3456 32.6442C62.2883 32.2587 62.0174 31.845 61.9222 30.8509C61.8987 30.5892 61.827 29.6713 62.1218 28.4867C62.3978 27.3737 63.3966 24.4244 64.6288 24.3865C65.3708 24.3675 66.2697 25.4042 68.986 33.624C70.3846 37.8481 71.1977 39.9646 71.512 41.7865C72.3443 46.7145 71.7542 50.5817 71.6164 51.4285C70.7651 56.6893 68.5484 60.6088 66.95 62.93C68.2437 61.8123 69.647 60.4045 70.9934 58.6445C74.2755 54.3635 75.7882 49.8206 76.5542 45.4874V45.468C76.6522 44.6613 76.7277 43.8861 76.7833 43.14C76.8292 42.5154 77.6246 42.2883 77.9931 42.7951C78.9617 44.125 80.3249 45.5788 82.2172 47.1548C81.0612 45.9908 78.8614 43.4324 78.0913 39.6166C77.9338 38.8368 77.448 36.0825 78.4944 33.0086Z" fill="white"/>
</svg>
