<svg width="35" height="36" viewBox="0 0 35 36" fill="none" xmlns="http://www.w3.org/2000/svg">
<path d="M27.7085 10.7087H23.3335V9.25033C23.3335 7.70323 22.7189 6.2195 21.625 5.12554C20.531 4.03157 19.0473 3.41699 17.5002 3.41699C15.9531 3.41699 14.4693 4.03157 13.3754 5.12554C12.2814 6.2195 11.6668 7.70323 11.6668 9.25033V10.7087H7.29183C6.90506 10.7087 6.53412 10.8623 6.26063 11.1358C5.98714 11.4093 5.8335 11.7802 5.8335 12.167V28.2087C5.8335 29.369 6.29443 30.4818 7.1149 31.3023C7.93538 32.1227 9.04817 32.5837 10.2085 32.5837H24.7918C25.9522 32.5837 27.0649 32.1227 27.8854 31.3023C28.7059 30.4818 29.1668 29.369 29.1668 28.2087V12.167C29.1668 11.7802 29.0132 11.4093 28.7397 11.1358C28.4662 10.8623 28.0953 10.7087 27.7085 10.7087ZM14.5835 9.25033C14.5835 8.47678 14.8908 7.73491 15.4378 7.18793C15.9847 6.64095 16.7266 6.33366 17.5002 6.33366C18.2737 6.33366 19.0156 6.64095 19.5626 7.18793C20.1095 7.73491 20.4168 8.47678 20.4168 9.25033V10.7087H14.5835V9.25033ZM26.2502 28.2087C26.2502 28.5954 26.0965 28.9664 25.823 29.2399C25.5495 29.5133 25.1786 29.667 24.7918 29.667H10.2085C9.82172 29.667 9.45079 29.5133 9.1773 29.2399C8.90381 28.9664 8.75016 28.5954 8.75016 28.2087V13.6253H11.6668V15.0837C11.6668 15.4704 11.8205 15.8414 12.094 16.1149C12.3675 16.3883 12.7384 16.542 13.1252 16.542C13.5119 16.542 13.8829 16.3883 14.1564 16.1149C14.4298 15.8414 14.5835 15.4704 14.5835 15.0837V13.6253H20.4168V15.0837C20.4168 15.4704 20.5705 15.8414 20.844 16.1149C21.1175 16.3883 21.4884 16.542 21.8752 16.542C22.2619 16.542 22.6329 16.3883 22.9064 16.1149C23.1798 15.8414 23.3335 15.4704 23.3335 15.0837V13.6253H26.2502V28.2087Z" fill="white"/>
</svg>
