<svg width="195" height="170" viewBox="0 0 195 170" fill="none" xmlns="http://www.w3.org/2000/svg">
<path d="M155.4 32.0534C154.723 32.4892 152.088 33.6189 146.834 35.8466C141.128 38.256 140.059 38.5266 139.532 38.0001C138.733 37.2469 139.697 35.3348 143.13 27.9133C147.255 19.0159 147.556 18.1266 149.183 16.6522C152.615 13.5349 156.484 12.7374 158.999 12.24C161.603 11.6988 164.117 11.1866 165.292 12.5121C166.647 14.0175 165.397 17.0589 164.223 19.9786C162.943 23.1254 160.82 28.3495 155.4 32.0534ZM112.929 44.0682L112.432 45.4681L106.591 61.9986L99.9519 80.8029L96.7896 89.76L94.772 90.8746L94.2599 91.1452L92.0319 92.3199L83.6013 96.8666H47.1681C47.1681 96.8666 47.664 98.4469 50.5107 101.007C52.8733 103.115 55.6441 105.267 58.9561 107.33C56.1853 106.667 52.1666 105.388 47.9055 102.783C43.9306 100.299 40.9946 97.3629 38.7666 95.0147C36.8255 92.9813 35.424 91.3255 34.2656 90.7533C33.9349 90.5881 33.6786 90.4974 33.3921 90.4974C33.2266 90.4974 33.0614 90.4974 32.9401 90.5881C31.9922 90.9642 31.0734 92.5761 31.4948 98.5682C30.6667 95.7521 29.5079 90.3772 30.6973 83.7226C30.9986 82.1427 31.3599 80.6974 31.8266 79.3414C33.0161 75.6079 34.6719 72.8081 35.8307 71.0615C35.6202 72.6429 35.4546 74.9454 35.7853 77.6855C35.8307 77.8813 35.876 78.1825 35.952 78.5439C36.1175 79.508 36.4479 80.908 37.1108 82.684V82.7293C37.6974 84.22 38.4813 85.9506 39.6854 87.9387L41.5374 82.5642L54.4842 46.0853L40.0014 42.7722H74.9601L58.0826 90.4974H77.1882L94.0653 42.7722H113.381L112.929 44.0682ZM182.439 74.4733C183.404 71.636 184.643 68.0001 186.513 67.8947C189.615 67.7227 192.7 77.356 194.908 86.0107C194.759 81.6159 193.674 65.0869 180.77 53.6092C176.899 50.1668 172.879 47.9894 169.477 46.5895C172.512 48.9521 176.379 52.7562 178.119 58.3215C179.595 63.0429 179.005 67.1679 177.871 71.1814C177.32 73.1282 174.583 73.1482 173.992 71.212C172.563 66.5212 170.811 62.6532 168.98 59.4535C167.686 57.1801 161.317 46.416 164.855 42.2306C167.549 39.024 176.447 38.9333 179.353 35.2146C181.823 32.0534 180.166 30.4267 182.876 24.3148C186.098 17.0279 189.907 16.0641 189.907 12.6013C189.921 10.6148 188.808 8.688 187.061 6.92674L166.405 0C162.912 0.55748 159.179 1.77752 153.383 2.86149C138.613 5.64662 137.876 2.25865 122.925 4.23081C121.932 4.35213 120.863 4.50256 119.735 4.63749C115.895 5.26942 111.575 6.21884 106.983 7.63352C100.599 9.6053 95.1492 12.0147 90.7374 14.3187C90.4067 14.4986 90.0907 14.6495 89.7747 14.86C79.8973 20.8668 72.8667 28.5453 67.9748 35.5907C71.7226 32.3093 77.6855 27.6268 85.9053 23.6829C100.012 16.8922 117.506 13.7613 119.192 17.404C119.568 18.1882 118.861 18.5787 118.199 21.244C116.828 26.5882 118.469 29.7041 118.319 33.484L118.316 33.5399C118.207 36.1761 116.038 38.256 113.4 38.256H90.8734H81.3589H0L39.0081 47.1693L48.5375 49.3519L40.1828 72.8829C40.1068 72.8655 40.2293 72.8946 40.1533 72.8761L42.9067 52.2429L32.0829 68.5629C30.0801 71.5586 28.6042 74.6294 27.5509 77.9119C27.0387 79.4026 26.6173 81.0134 26.2707 82.8654C25.2469 88.5415 25.564 94.3975 27.1748 99.8321L38.9322 139.833L36.0416 98.688C38.496 101.247 41.5521 104.123 45.5119 106.607C49.3508 108.956 53.5053 110.672 57.9175 111.711L84.9415 118.184L61.3493 103.491C60.2653 102.813 59.212 102.105 58.1881 101.383H84.7453L85.7548 100.841L89.2853 98.9359C90.6108 98.2201 92.18 99.3026 91.9854 100.797C90.3787 113.11 91.5455 131.967 91.6415 133.315C91.7613 110.642 98.6415 99.8468 105.085 94.156C114.315 86.0266 132.351 79.824 131.327 73.3202C131.145 72.1002 130.288 70.7906 129.987 67.6441C129.912 66.816 129.685 63.9107 130.619 60.1614C131.492 56.6389 134.653 47.3042 138.553 47.184C140.902 47.1239 143.747 50.4053 152.344 76.4213C156.771 89.7906 159.344 96.4895 160.339 102.256C162.973 117.853 161.105 130.093 160.669 132.773C157.975 149.424 150.959 161.83 145.9 169.176C149.995 165.639 154.436 161.183 158.697 155.612C169.085 142.063 173.873 127.684 176.298 113.969V113.908C176.608 111.355 176.847 108.901 177.023 106.54C177.168 104.563 179.686 103.844 180.852 105.448C183.917 109.657 188.232 114.259 194.221 119.247C190.563 115.563 183.6 107.465 181.163 95.3881C180.664 92.9201 179.127 84.2026 182.439 74.4733Z" fill="white"/>
</svg>
