<svg width="82" height="24" viewBox="0 0 82 24" fill="none" xmlns="http://www.w3.org/2000/svg">
<path fill-rule="evenodd" clip-rule="evenodd" d="M8.43913 1.12715C8.39833 1.12784 8.36053 1.12848 8.32602 1.12869L0.942383 1.12875V22.7287H8.07735V9.99006H8.5558L12.5332 22.7287H17.9013L21.8787 9.99949H22.3572V22.7287H29.4922V1.12875L22.4918 1.12875C22.4375 1.12875 22.3783 1.12794 22.3149 1.12708C21.3178 1.1135 19.2618 1.0855 18.4087 3.94125C17.8786 5.71611 16.9045 9.03315 15.4865 13.8924H14.948C13.6258 9.28329 12.6622 5.96625 12.0573 3.94125C11.2028 1.0805 9.24162 1.11361 8.43913 1.12715ZM39.7378 13.8674V1.12875H32.4538V22.7287H39.3584C39.3584 22.7287 41.4549 22.5401 42.3941 20.465L47.1373 9.99006H47.7065V22.7287H54.9905V1.12875H48.086C48.086 1.12875 46.0843 1.30797 45.1451 3.39251L40.307 13.8674H39.7378ZM72.4277 16.2944C75.9604 16.2944 79.1511 14.2491 80.1672 11.3932H57.8624V22.7287H64.7891V16.2944H72.4277ZM57.4992 1.12874H72.7618C78.6345 1.12874 81.4731 6.0576 80.6485 10.0544H66.3596C62.0375 10.0544 57.8625 5.93763 57.4992 1.12874Z" fill="#DADADA"/>
</svg>
