<svg width="30" height="15" viewBox="0 0 30 15" fill="none" xmlns="http://www.w3.org/2000/svg">
<path d="M13.7937 5.26C13.7937 6.32667 13.4403 7.21333 12.7337 7.92C12.027 8.61333 11.0403 9.02667 9.77367 9.16L13.7337 13.62V14H10.8537L6.57367 9.2H3.21367V14H0.713672V0.88H8.91367C10.4337 0.88 11.627 1.25333 12.4937 2C13.3603 2.73333 13.7937 3.74 13.7937 5.02V5.26ZM11.2537 4.92C11.2537 4.34667 11.047 3.90667 10.6337 3.6C10.2203 3.28 9.62701 3.12 8.85367 3.12H3.21367V6.98H8.85367C9.62701 6.98 10.2203 6.82667 10.6337 6.52C11.047 6.2 11.2537 5.74667 11.2537 5.16V4.92ZM23.047 14.24C21.767 14.24 20.6403 13.9933 19.667 13.5C18.707 12.9933 17.9603 12.2867 17.427 11.38C16.8936 10.4733 16.627 9.42 16.627 8.22V0.88H19.127V8.26C19.127 9.40667 19.467 10.3067 20.147 10.96C20.8403 11.6 21.807 11.92 23.047 11.92C24.287 11.92 25.2536 11.6 25.947 10.96C26.6403 10.3067 26.987 9.40667 26.987 8.26V0.88H29.487V8.22C29.487 9.42 29.2203 10.4733 28.687 11.38C28.1536 12.2867 27.4003 12.9933 26.427 13.5C25.4536 13.9933 24.327 14.24 23.047 14.24Z" fill="white"/>
</svg>
