<svg width="105" height="52" viewBox="0 0 105 52" fill="none" xmlns="http://www.w3.org/2000/svg">
<path d="M82.8427 17.0271V27.0337H79.2695V20.0142H75.829V27.0337H72.2559V17.0264H82.8427V17.0271Z" fill="white"/>
<path fill-rule="evenodd" clip-rule="evenodd" d="M64.9178 27.3915C68.1165 27.3915 70.4918 25.4302 70.4918 22.457C70.4918 19.5793 68.7393 17.7109 65.8104 17.7109C64.4587 17.7109 63.3434 18.1867 62.5033 19.0077C62.7038 17.3108 64.1388 16.072 65.7187 16.072C66.0833 16.072 68.8283 16.0662 68.8283 16.0662L70.3806 13.0957C70.3806 13.0957 66.9343 13.1742 65.3322 13.1742C61.6717 13.2379 59.1992 16.5652 59.1992 20.6063C59.1992 25.3143 61.6107 27.3915 64.9178 27.3915ZM64.9372 20.342C66.1249 20.342 66.9483 21.1224 66.9483 22.4567C66.9483 23.6576 66.2166 24.6471 64.9372 24.6499C63.7134 24.6499 62.8901 23.733 62.8901 22.4772C62.8901 21.1425 63.7134 20.342 64.9372 20.342Z" fill="white"/>
<path d="M56.2893 23.6838C56.2893 23.6838 55.4454 24.1702 54.1851 24.2623C52.7362 24.3052 51.4452 23.3901 51.4452 21.7642C51.4452 20.1781 52.5844 19.2692 54.1486 19.2692C55.1078 19.2692 56.3766 19.9339 56.3766 19.9339C56.3766 19.9339 57.305 18.2302 57.7859 17.3782C56.9053 16.7107 55.7323 16.3447 54.368 16.3447C50.9247 16.3447 48.2578 18.5897 48.2578 21.7441C48.2578 24.9386 50.7644 27.1314 54.368 27.0653C55.3752 27.0278 56.7647 26.6741 57.6116 26.13L56.2893 23.6838Z" fill="white"/>
<path d="M10.7246 14.4443L15.6812 23.3039V28.708L10.7304 37.5502L10.7246 14.4443Z" fill="#5B57A2"/>
<path d="M29.7549 20.0801L34.3994 17.2335L43.9047 17.2246L29.7549 25.8929V20.0801Z" fill="#D90751"/>
<path d="M29.7281 14.392L29.7543 26.1218L24.7861 23.0692V5.53516L29.7281 14.392Z" fill="#FAB718"/>
<path d="M43.9041 17.2244L34.3985 17.2332L29.7281 14.392L24.7861 5.53516L43.9041 17.2244Z" fill="#ED6F26"/>
<path d="M29.7543 37.5987V31.9078L24.7861 28.9131L24.7889 46.4645L29.7543 37.5987Z" fill="#63B22F"/>
<path d="M34.3889 34.7786L15.6809 23.3039L10.7246 14.4443L43.8856 34.767L34.3889 34.7786Z" fill="#1487C9"/>
<path d="M24.791 46.4647L29.7558 37.5989L34.3887 34.7782L43.8855 34.7666L24.791 46.4647Z" fill="#017F36"/>
<path d="M10.7305 37.5501L24.8284 28.9139L20.0887 26.0059L15.6813 28.7079L10.7305 37.5501Z" fill="#984995"/>
<path d="M51.4475 33.7683C51.3384 33.9074 51.1948 34.0125 51.0225 34.0834C50.8458 34.1554 50.6567 34.192 50.4659 34.1912C50.2761 34.1938 50.0874 34.1621 49.9089 34.0977C49.7485 34.0395 49.602 33.9487 49.4784 33.831C49.3565 33.7132 49.2607 33.5709 49.1974 33.4135C49.1289 33.2412 49.0947 33.057 49.0968 32.8716C49.0968 32.6874 49.1285 32.5168 49.1943 32.3552C49.2574 32.1931 49.3492 32.0543 49.4641 31.9377C49.5791 31.8186 49.7169 31.7279 49.8717 31.657C50.0296 31.5887 50.2019 31.5519 50.3912 31.5519C50.5951 31.5519 50.7844 31.5775 50.9567 31.6283C51.1289 31.6795 51.2753 31.7647 51.3957 31.8841L51.1862 32.2389C51.085 32.1471 50.9657 32.0774 50.8359 32.0342C50.7126 31.9945 50.5838 31.9744 50.4543 31.9749C50.3397 31.9749 50.2305 31.9974 50.1245 32.04C50.0199 32.0821 49.9244 32.1438 49.8431 32.2218C49.7599 32.302 49.6944 32.3986 49.6507 32.5056C49.6019 32.6161 49.5791 32.7382 49.5791 32.8743C49.5791 33.0134 49.6046 33.1383 49.6534 33.2461C49.7025 33.3569 49.7684 33.4507 49.8516 33.5298C49.9348 33.6097 50.0324 33.669 50.1442 33.7089C50.2564 33.7515 50.3741 33.7713 50.5003 33.7713C50.6552 33.7713 50.796 33.74 50.9164 33.6803C51.0357 33.6226 51.143 33.5428 51.2323 33.4449L51.4475 33.7683ZM52.0386 34.1315V31.6058H52.4922V33.4876L53.9674 31.6058H54.4211V34.1319H53.9674V32.2501L52.4922 34.1319H52.0386V34.1315ZM57.426 33.7683C57.3144 33.9086 57.168 34.0173 57.0013 34.0834C56.8245 34.1553 56.6353 34.1919 56.4444 34.1912C56.2547 34.1937 56.0661 34.1621 55.8877 34.0977C55.7273 34.0395 55.5806 33.9487 55.4569 33.831C55.3349 33.7132 55.2392 33.5709 55.1759 33.4135C55.1073 33.2412 55.0732 33.057 55.0753 32.8716C55.0753 32.6874 55.107 32.5168 55.1728 32.3552C55.2362 32.1931 55.328 32.0543 55.4426 31.9377C55.5575 31.8186 55.6953 31.7279 55.8502 31.657C56.0138 31.5849 56.191 31.5491 56.3697 31.5519C56.5736 31.5519 56.7629 31.5775 56.9352 31.6283C57.1074 31.6795 57.2537 31.7647 57.3745 31.8841L57.1647 32.2389C57.0636 32.147 56.9444 32.0773 56.8148 32.0342C56.6915 31.9945 56.5627 31.9745 56.4331 31.9749C56.2051 31.9756 55.9861 32.064 55.8215 32.2218C55.7391 32.3026 55.6737 32.3991 55.6292 32.5056C55.5804 32.6161 55.5575 32.7382 55.5575 32.8743C55.5575 33.0134 55.5835 33.1383 55.6322 33.2461C55.681 33.3569 55.7468 33.4507 55.8301 33.5298C55.9133 33.6097 56.0112 33.669 56.1231 33.7089C56.2349 33.7485 56.3526 33.7713 56.4788 33.7713C56.634 33.7713 56.7718 33.74 56.8949 33.6803C57.0142 33.6226 57.1214 33.5428 57.2108 33.4449L57.426 33.7683ZM57.6586 31.6058H59.9862V32.0543H59.0506V34.1315H58.5969V32.0543H57.6613V31.6058H57.6586Z" fill="white"/>
<path fill-rule="evenodd" clip-rule="evenodd" d="M62.1036 34.1059C62.2758 34.052 62.4221 33.9695 62.5483 33.8563L62.4105 33.5043C62.3273 33.5783 62.2154 33.6407 62.0807 33.6919C61.9456 33.743 61.7935 33.7683 61.6271 33.7683C61.3774 33.7683 61.1707 33.7031 61.007 33.5698C60.8436 33.4361 60.7546 33.2491 60.7344 33.0104H62.6977C62.7178 32.9224 62.7264 32.8231 62.7264 32.7068C62.7264 32.5336 62.6946 32.3777 62.6315 32.2358C62.5728 32.098 62.487 31.9734 62.3791 31.8695C62.2698 31.7665 62.141 31.6865 62.0002 31.6341C61.8529 31.5769 61.6961 31.548 61.538 31.5488C61.3255 31.5488 61.139 31.5857 60.9756 31.6539C60.8211 31.7189 60.6814 31.8145 60.5649 31.935C60.4518 32.0548 60.3649 32.1968 60.3098 32.3521C60.2492 32.5174 60.219 32.6924 60.2208 32.8685C60.2208 33.0673 60.2552 33.2488 60.3183 33.4108C60.3797 33.5678 60.4736 33.7099 60.5939 33.828C60.7116 33.9439 60.8548 34.0323 61.0244 34.0947C61.2059 34.159 61.3973 34.1907 61.5899 34.1881C61.7643 34.1871 61.9375 34.1591 62.1036 34.1059ZM60.9555 32.1618C61.096 32.0342 61.2826 31.9718 61.5179 31.9718C61.7389 31.9718 61.917 32.0315 62.0462 32.1509C62.1755 32.2699 62.2441 32.4346 62.2557 32.6444H60.7058C60.7278 32.4587 60.8165 32.2869 60.9555 32.1618Z" fill="white"/>
<path d="M63.3447 31.6055H63.7581L64.7398 32.8572L65.6695 31.6055H66.0713V34.1315H65.618V32.2897L64.734 33.4616H64.7166L63.7984 32.2893V34.1312H63.3447V31.6055Z" fill="white"/>
<path fill-rule="evenodd" clip-rule="evenodd" d="M67.3047 31.6146C67.1671 31.6506 67.0355 31.7069 66.9145 31.7817L67.0349 32.1399C67.1383 32.0887 67.2416 32.0461 67.345 32.0092C67.4483 31.972 67.5803 31.955 67.7382 31.955C67.8644 31.955 67.9651 31.9751 68.0425 32.0147C68.1199 32.0515 68.1772 32.1085 68.2175 32.1767C68.2577 32.2449 68.2836 32.3298 68.298 32.4291C68.3123 32.5284 68.3181 32.6361 68.3181 32.7528C68.2253 32.6881 68.1195 32.6445 68.008 32.6249C67.9003 32.6035 67.7908 32.592 67.6809 32.5908C67.5459 32.5908 67.4197 32.6109 67.2989 32.6447C67.1785 32.6788 67.0752 32.7299 66.992 32.7981C66.907 32.8662 66.8384 32.9525 66.7911 33.0505C66.7405 33.1579 66.715 33.2754 66.7164 33.394C66.7164 33.641 66.7883 33.834 66.9316 33.9704C67.0752 34.1065 67.2645 34.1744 67.4998 34.1744C67.7123 34.1744 67.8818 34.1376 68.0108 34.0639C68.14 33.9899 68.2434 33.905 68.3181 33.8084V34.1348H68.7427V32.5853C68.7427 32.2558 68.6711 32.0007 68.5248 31.8216C68.3812 31.6429 68.1257 31.5522 67.7642 31.5522C67.6032 31.5522 67.4511 31.5747 67.3047 31.6146ZM68.063 33.6611C67.9596 33.7348 67.8245 33.7685 67.6581 33.7685C67.5118 33.7685 67.3968 33.7317 67.3167 33.6607C67.2362 33.5871 67.1959 33.4905 67.1959 33.3712C67.1959 33.3006 67.2103 33.2409 67.242 33.187C67.2737 33.1331 67.3167 33.0905 67.3654 33.0563C67.4188 33.0207 67.478 32.9947 67.5404 32.9796C67.6066 32.9625 67.6724 32.954 67.7413 32.954C67.9654 32.954 68.1574 33.0079 68.3154 33.1215V33.4421C68.2409 33.5255 68.1561 33.5993 68.063 33.6611ZM72.747 30.7175C72.8388 30.6753 72.9247 30.6043 73.0052 30.4993L72.7583 30.1445C72.6952 30.2298 72.6236 30.2891 72.5431 30.3205C72.4578 30.3539 72.3693 30.3786 72.2791 30.3942L72.1931 30.4096C72.1184 30.4225 72.0383 30.4368 71.952 30.4512C71.8136 30.4768 71.6787 30.5187 71.5502 30.576C71.3462 30.664 71.1828 30.783 71.0594 30.9335C70.9359 31.0839 70.8383 31.2541 70.7722 31.4417C70.7051 31.6317 70.6599 31.8288 70.6374 32.029C70.6142 32.2337 70.603 32.4291 70.603 32.6164C70.603 32.8578 70.6344 33.0761 70.6975 33.2719C70.7609 33.468 70.8496 33.6324 70.9673 33.7658C71.0849 33.9022 71.2258 34.0046 71.3923 34.0782C71.5587 34.1519 71.7453 34.1887 71.9547 34.1887C72.1471 34.1887 72.3251 34.1519 72.4858 34.0837C72.6406 34.0181 72.7811 33.9228 72.8992 33.803C73.0138 33.6863 73.1059 33.5472 73.169 33.3913C73.2348 33.2351 73.2665 33.0676 73.2665 32.8916C73.2665 32.7016 73.2378 32.5287 73.1833 32.3752C73.133 32.2289 73.0529 32.0946 72.9479 31.9809C72.8428 31.8691 72.7143 31.7818 72.5717 31.7251C72.4146 31.6632 72.247 31.6324 72.0782 31.6344C71.969 31.6344 71.8629 31.6487 71.7596 31.677C71.6591 31.7053 71.5626 31.7464 71.4724 31.7991C71.3849 31.8492 71.3048 31.9112 71.2343 31.9833C71.1654 32.0546 71.1081 32.1341 71.0679 32.2248H71.0563C71.0652 32.1085 71.0795 31.9894 71.1051 31.8673C71.131 31.7452 71.1682 31.6286 71.2173 31.5181C71.2661 31.4076 71.3292 31.308 71.4066 31.2172C71.4896 31.1257 71.5914 31.0531 71.705 31.0044C71.83 30.9449 71.9622 30.902 72.0983 30.8768L72.1883 30.8605C72.278 30.8441 72.3637 30.8284 72.4455 30.8113C72.5547 30.7888 72.6549 30.7598 72.747 30.7175ZM71.1511 33.1443C71.1067 33.0011 71.0854 32.8516 71.088 32.7016C71.1072 32.6155 71.1423 32.5338 71.1914 32.4605C71.2401 32.3837 71.3032 32.3159 71.3779 32.2558C71.5465 32.1238 71.7549 32.0528 71.969 32.0546C72.2361 32.0546 72.437 32.1368 72.5775 32.2988C72.7184 32.4632 72.7873 32.6675 72.7873 32.9145C72.7873 33.0366 72.7641 33.1474 72.7242 33.2494C72.6854 33.35 72.6268 33.4418 72.5518 33.5193C72.4769 33.5968 72.3872 33.6585 72.2879 33.7006C72.1846 33.746 72.0724 33.7689 71.9462 33.7689C71.82 33.7689 71.705 33.7433 71.599 33.6921C71.4935 33.642 71.4004 33.5693 71.3261 33.4793C71.2483 33.3789 71.189 33.2655 71.1511 33.1443ZM76.7452 31.6061H76.2916V34.1321H76.7452V31.6061ZM73.9207 31.6061H74.3743V32.364H74.7935C74.9914 32.364 75.152 32.3895 75.2813 32.4376C75.4105 32.4861 75.5139 32.5512 75.5913 32.6307C75.6687 32.7102 75.7233 32.8039 75.755 32.9087C75.7864 33.0137 75.8038 33.1215 75.8038 33.2351C75.8038 33.3487 75.7864 33.4568 75.7492 33.5646C75.7148 33.6723 75.6544 33.7658 75.5739 33.8511C75.4938 33.9363 75.3846 34.0046 75.2468 34.0557C75.109 34.1065 74.9426 34.1348 74.7417 34.1348H73.918V31.6061H73.9207ZM74.3743 32.7866V33.7119H74.7045C74.9313 33.7119 75.092 33.6723 75.1837 33.5925C75.2758 33.5131 75.3215 33.3998 75.3215 33.2494C75.3215 33.0959 75.2727 32.9799 75.181 32.9001C75.0862 32.8207 74.9283 32.7808 74.7103 32.7808H74.3743V32.7866Z" fill="white"/>
<path d="M79.7449 33.7683C79.6357 33.9074 79.4921 34.0125 79.3199 34.0834C79.1431 34.1553 78.954 34.192 78.7632 34.1912C78.5735 34.1938 78.3848 34.1621 78.2062 34.0977C78.0458 34.0396 77.8993 33.9488 77.7758 33.831C77.6538 33.7131 77.558 33.5709 77.4944 33.4135C77.4261 33.2411 77.3921 33.057 77.3941 32.8716C77.3941 32.6874 77.4255 32.5168 77.4917 32.3552C77.5548 32.1931 77.6465 32.0543 77.7615 31.9377C77.8764 31.8186 78.0139 31.7279 78.1691 31.657C78.3326 31.5849 78.5098 31.5491 78.6885 31.5519C78.8922 31.5519 79.0818 31.5775 79.2541 31.6283C79.4263 31.6795 79.5726 31.7647 79.693 31.8841L79.4836 32.2389C79.3823 32.1471 79.263 32.0774 79.1333 32.0342C79.01 31.9945 78.8812 31.9744 78.7516 31.9749C78.637 31.9749 78.5279 31.9974 78.4215 32.04C78.317 32.0821 78.2216 32.1438 78.1404 32.2218C78.0579 32.3025 77.9925 32.399 77.948 32.5056C77.8993 32.6161 77.8764 32.7382 77.8764 32.8743C77.8764 33.0135 77.902 33.1383 77.9508 33.2461C77.9996 33.3569 78.0657 33.4507 78.1489 33.5298C78.2322 33.6097 78.3297 33.669 78.4416 33.7089C78.5538 33.7485 78.6715 33.7713 78.7977 33.7713C78.9525 33.7713 79.0903 33.74 79.2138 33.6803C79.3331 33.6226 79.4403 33.5428 79.5296 33.4449L79.7449 33.7683ZM79.9771 31.6058H82.305V32.0543H81.3691V34.1315H80.9158V32.0543H79.9802V31.6058H79.9771Z" fill="white"/>
<path fill-rule="evenodd" clip-rule="evenodd" d="M83.252 31.606H82.7983V35.2555H83.252V34.0154C83.3437 34.0751 83.4529 34.1177 83.5791 34.146C83.7053 34.1743 83.8373 34.1883 83.9723 34.1883C84.1732 34.1883 84.354 34.1515 84.5177 34.0836C84.6748 34.0164 84.8171 33.9191 84.9366 33.7971C85.0543 33.6746 85.1433 33.5327 85.2064 33.3653C85.2695 33.1981 85.3012 33.0191 85.3012 32.8291C85.3012 32.6415 85.2726 32.4686 85.218 32.3124C85.1666 32.164 85.0866 32.0271 84.9826 31.9095C84.8806 31.7948 84.754 31.7046 84.6122 31.6455C84.4573 31.579 84.29 31.5461 84.1214 31.549C83.9437 31.549 83.7772 31.5831 83.6193 31.6513C83.4614 31.7196 83.3379 31.8014 83.252 31.9037V31.606ZM83.5678 32.0743C83.6971 32.0061 83.8376 31.972 83.9897 31.972C84.1217 31.972 84.2394 31.9917 84.3458 32.0344C84.4492 32.077 84.5351 32.1367 84.6071 32.2162C84.6787 32.2956 84.7333 32.3867 84.7677 32.4941C84.8049 32.6019 84.8223 32.7186 84.8223 32.8461C84.8223 32.9826 84.7991 33.1043 84.7592 33.2179C84.7216 33.3256 84.6619 33.4242 84.5839 33.5075C84.5056 33.5898 84.4107 33.6545 84.3056 33.6975C84.1884 33.7466 84.0622 33.7707 83.9352 33.7684C83.812 33.7684 83.6971 33.7544 83.5879 33.7261C83.4684 33.6936 83.3551 33.6418 83.2523 33.5727V32.3209C83.3325 32.2247 83.4389 32.1425 83.5678 32.0743ZM88.7799 31.6056H88.3263V34.1317H88.7799V31.6056ZM85.9527 31.6056H86.4063V32.3635H86.8252C87.0233 32.3635 87.184 32.3891 87.3132 32.4372C87.4425 32.4856 87.5459 32.5508 87.6233 32.6302C87.7007 32.7097 87.7553 32.8035 87.7867 32.9082C87.8184 33.0133 87.8354 33.1211 87.8354 33.2346C87.8354 33.3482 87.8184 33.4563 87.7812 33.5641C87.7468 33.6719 87.6864 33.7654 87.6059 33.8506C87.5257 33.9359 87.4166 34.0041 87.2788 34.0553C87.141 34.1061 86.9745 34.1344 86.7736 34.1344H85.9499V31.6056H85.9527ZM86.4094 32.7861V33.7115H86.7395C86.966 33.7115 87.127 33.6719 87.2188 33.5921C87.3105 33.5126 87.3566 33.3994 87.3566 33.249C87.3566 33.0955 87.3078 32.9795 87.216 32.8997C87.1212 32.8202 86.9633 32.7803 86.7453 32.7803H86.4094V32.7861Z" fill="white"/>
<path d="M90.9559 32.8231L91.9259 34.1315H91.3693L90.6199 33.1096L89.8593 34.1315H89.3313L90.2955 32.8456L89.3886 31.6055H89.9456L90.6373 32.5591L91.3403 31.6055H91.8686L90.9559 32.8231ZM51.1117 37.2534H49.7198V39.3593H49.2661V36.8336H51.565V39.3593H51.1117V37.2534ZM54.1395 37.2818H53.2442L53.2152 37.7074C53.1838 38.0679 53.1408 38.3575 53.0804 38.5785C53.0201 38.8003 52.9454 38.9705 52.8594 39.0895C52.7735 39.2089 52.6728 39.2911 52.5579 39.331C52.4393 39.374 52.3139 39.3951 52.1878 39.3934L52.1534 38.9561C52.2021 38.9589 52.2594 38.9476 52.3225 38.9193C52.386 38.891 52.4491 38.8286 52.5091 38.7351C52.5695 38.6382 52.6241 38.5021 52.6728 38.3261C52.7216 38.1474 52.7533 37.9148 52.7704 37.6222L52.8164 36.836H54.5931V39.362H54.1395V37.2814V37.2818Z" fill="white"/>
<path fill-rule="evenodd" clip-rule="evenodd" d="M55.8155 36.8398C55.6688 36.8793 55.5368 36.9359 55.4249 37.0069L55.5457 37.3647C55.649 37.3135 55.7524 37.2709 55.8554 37.2341C55.9587 37.1972 56.0911 37.1802 56.2487 37.1802C56.3752 37.1802 56.4755 37.1999 56.5529 37.2395C56.6307 37.2767 56.688 37.3333 56.7282 37.4015C56.7681 37.4697 56.794 37.555 56.8084 37.6539C56.8227 37.7535 56.8285 37.8613 56.8285 37.9776C56.7357 37.913 56.6299 37.8695 56.5184 37.85C56.4107 37.8286 56.3012 37.8172 56.1914 37.8159C56.0566 37.8159 55.9301 37.8357 55.8097 37.8698C55.6889 37.9039 55.5856 37.9551 55.5024 38.0233C55.4174 38.0914 55.3488 38.1777 55.3015 38.2757C55.251 38.3831 55.2256 38.5005 55.2271 38.6192C55.2271 38.8658 55.2987 39.0592 55.4423 39.1953C55.5856 39.3314 55.7752 39.3996 56.0106 39.3996C56.2231 39.3996 56.3922 39.3627 56.5215 39.2887C56.6504 39.2151 56.7538 39.1298 56.8285 39.0333V39.3597H57.2535V37.8101C57.2535 37.481 57.1815 37.2255 57.0352 37.0468C56.8916 36.8677 56.6361 36.7773 56.2746 36.7773C56.1195 36.7775 55.9651 36.7987 55.8155 36.8398ZM56.5761 38.8856C56.4731 38.9596 56.338 38.9937 56.1716 38.9937C56.0222 38.9937 55.9103 38.9569 55.8301 38.8856C55.7497 38.8119 55.7094 38.7154 55.7094 38.5963C55.7094 38.5254 55.7237 38.4657 55.7554 38.4118C55.7868 38.3579 55.8301 38.3153 55.8789 38.2812C55.9277 38.2471 55.9877 38.2215 56.0539 38.2044C56.1195 38.1875 56.187 38.179 56.2548 38.1792C56.4785 38.1792 56.6709 38.2331 56.8288 38.3463V38.6669C56.7543 38.7503 56.6694 38.8238 56.5761 38.8856Z" fill="white"/>
<path d="M57.6987 36.834H60.0266V37.2822H59.0907V39.3597H58.6374V37.2825H57.7018V36.834H57.6987Z" fill="white"/>
<path fill-rule="evenodd" clip-rule="evenodd" d="M62.1439 39.3335C62.3162 39.2796 62.4625 39.197 62.5887 39.0838L62.4509 38.7318C62.3677 38.8058 62.2558 38.8682 62.1207 38.9194C61.986 38.9705 61.8339 38.9958 61.6674 38.9958C61.4178 38.9958 61.2111 38.9306 61.0473 38.7973C60.8836 38.6639 60.7949 38.4767 60.7748 38.2379H62.7381C62.7579 38.1502 62.7667 38.0506 62.7667 37.9343C62.7667 37.7614 62.735 37.6052 62.6719 37.4633C62.6131 37.3256 62.5272 37.2011 62.4192 37.0973C62.3101 36.9942 62.1813 36.914 62.0406 36.8616C61.8932 36.8045 61.7364 36.7756 61.5784 36.7764C61.3659 36.7764 61.1793 36.8132 61.016 36.8814C60.8614 36.9462 60.7217 37.0419 60.6053 37.1625C60.4922 37.2824 60.4052 37.4244 60.3498 37.5796C60.2893 37.745 60.2592 37.9199 60.2608 38.096C60.2608 38.2949 60.2953 38.4763 60.3584 38.6383C60.4218 38.8 60.5163 38.9392 60.6339 39.0555C60.7516 39.1718 60.8952 39.2598 61.0647 39.3222C61.2461 39.3867 61.4374 39.4184 61.6299 39.416C61.7994 39.416 61.9717 39.3874 62.1439 39.3335ZM60.9931 37.3866C61.1336 37.259 61.3202 37.1966 61.5556 37.1966C61.7796 37.1966 61.9546 37.259 62.0839 37.3753C62.2128 37.4947 62.2817 37.6591 62.2933 37.8692H60.7434C60.7653 37.6833 60.8541 37.5118 60.9931 37.3866ZM62.9878 36.8333H63.5618L64.437 38.051L63.5014 39.359H62.9448L63.9261 38.0507L62.9878 36.8333ZM64.5489 36.8333H65.0025V39.359H64.5489V36.8333ZM66.624 39.359L65.6253 38.0507L66.5582 36.833H65.9954L65.1144 38.0507L66.0616 39.359H66.624ZM68.6964 39.3335C68.8687 39.2796 69.015 39.197 69.1412 39.0838L69.0034 38.7318C68.9202 38.8058 68.8083 38.8682 68.6736 38.9194C68.5385 38.9705 68.3864 38.9958 68.22 38.9958C67.9703 38.9958 67.7636 38.9306 67.5999 38.7973C67.4365 38.6639 67.3475 38.4767 67.3273 38.2379H69.2906C69.3107 38.1502 69.3193 38.0506 69.3193 37.9343C69.3193 37.7614 69.2879 37.6052 69.2244 37.4633C69.1657 37.3256 69.0798 37.2012 68.972 37.0973C68.8628 36.9941 68.7339 36.914 68.5931 36.8616C68.4458 36.8045 68.289 36.7755 68.1309 36.7764C67.9188 36.7764 67.7322 36.8132 67.5685 36.8814C67.4141 36.9463 67.2745 37.042 67.1582 37.1625C67.0448 37.2822 66.9578 37.4243 66.9027 37.5796C66.8421 37.745 66.8119 37.9199 66.8137 38.096C66.8137 38.2949 66.8481 38.4763 66.9112 38.6383C66.9743 38.8 67.0691 38.9392 67.1868 39.0555C67.3045 39.1718 67.4477 39.2598 67.6173 39.3222C67.7987 39.3867 67.9902 39.4184 68.1828 39.416C68.3572 39.4147 68.5304 39.3869 68.6964 39.3335ZM67.5456 37.3866C67.6865 37.259 67.8731 37.1966 68.1084 37.1966C68.3294 37.1966 68.5071 37.259 68.6364 37.3753C68.7657 37.4947 68.8346 37.6591 68.8458 37.8692H67.296C67.3178 37.6833 67.4066 37.5118 67.5456 37.3866ZM71.1594 35.9847C70.8923 35.9847 70.746 35.837 70.7231 35.542H70.2954C70.2954 35.6552 70.3156 35.7576 70.3527 35.8541C70.3903 35.9506 70.4448 36.0328 70.5165 36.101C70.5881 36.1692 70.6802 36.2231 70.7862 36.2654C70.8923 36.3081 71.0158 36.3278 71.1563 36.3278C71.2856 36.3278 71.4005 36.3081 71.5039 36.2654C71.6072 36.2259 71.6932 36.1692 71.7679 36.101C71.8395 36.0328 71.8972 35.9506 71.9371 35.8541C71.9773 35.7576 71.9974 35.6552 71.9974 35.542H71.5728C71.5527 35.837 71.4118 35.9847 71.1594 35.9847ZM69.9335 36.833V39.359H70.3872L71.8624 37.4773V39.359H72.316V36.833H71.8624L70.3872 38.7147V36.833H69.9335Z" fill="white"/>
</svg>
