<svg width="123" height="52" viewBox="0 0 123 52" fill="none" xmlns="http://www.w3.org/2000/svg">
<g clip-path="url(#clip0_243_119)">
<mask id="mask0_243_119" style="mask-type:luminance" maskUnits="userSpaceOnUse" x="-1" y="0" width="123" height="52">
<path d="M121.742 0H-0.189453V52H121.742V0Z" fill="white"/>
</mask>
<g mask="url(#mask0_243_119)">
<mask id="mask1_243_119" style="mask-type:luminance" maskUnits="userSpaceOnUse" x="-1" y="0" width="216" height="58">
<path d="M214.983 0H-0.189453V57.3793H214.983V0Z" fill="white"/>
</mask>
<g mask="url(#mask1_243_119)">
<path d="M60.1631 11.4694L54.0147 40.0158H46.5487L52.6972 11.4694H60.1631ZM91.1982 29.9148L95.1507 19.2282L97.3466 29.9148H91.1982ZM99.5425 40.0158H106.423L100.421 11.4694H94.126C92.6621 11.4694 91.4909 12.3478 90.9054 13.5189L79.7796 39.8694H87.5384L89.1487 35.6241H98.6641L99.5425 40.0158ZM80.2188 30.6467C80.2188 23.1808 69.825 22.7416 69.825 19.3746C69.825 18.3499 70.8497 17.3251 72.8992 17.0323C73.924 16.8859 76.8518 16.7395 80.2188 18.3499L81.5363 12.3478C79.7796 11.7622 77.4373 11.0303 74.6559 11.0303C67.3363 11.0303 62.2126 14.8365 62.2126 20.3993C62.2126 24.4983 65.8724 26.8406 68.6538 28.1581C71.5817 29.622 72.46 30.5004 72.46 31.6715C72.46 33.5746 70.1178 34.4529 68.0683 34.4529C64.4085 34.4529 62.2126 33.4282 60.4559 32.6962L59.1384 38.8447C60.8951 39.5766 64.1157 40.3086 67.3363 40.3086C75.0951 40.455 80.2188 36.6488 80.2188 30.6467ZM49.4766 11.4694L37.4724 40.0158H29.7137L23.858 17.3251C23.4188 15.8612 23.1261 15.2756 22.1013 14.6901C20.3446 13.8117 17.4168 12.787 14.7817 12.3478L14.9281 11.4694H27.5178C29.1281 11.4694 30.592 12.4942 30.8848 14.3973L33.959 30.9395L41.7178 11.4694H49.4766Z" fill="white"/>
</g>
</g>
</g>
<defs>
<clipPath id="clip0_243_119">
<rect width="121.931" height="52" fill="white" transform="translate(0.600098)"/>
</clipPath>
</defs>
</svg>
